<svg width="32" height="29" viewBox="0 0 32 29" fill="none" xmlns="http://www.w3.org/2000/svg">
<path d="M15.9275 7.42451C11.5478 7.42451 8.01327 10.6462 8.01327 14.6382C8.01327 18.6301 11.5478 21.8518 15.9275 21.8518C20.3071 21.8518 23.8417 18.6301 23.8417 14.6382C23.8417 10.6462 20.3071 7.42451 15.9275 7.42451ZM15.9275 19.3265C13.0952 19.3265 10.7838 17.2198 10.7838 14.6382C10.7838 12.0566 13.0952 9.94982 15.9275 9.94982C18.7597 9.94982 21.0711 12.0566 21.0711 14.6382C21.0711 17.2198 18.7597 19.3265 15.9275 19.3265ZM24.1658 5.44787C23.1432 5.44787 22.3175 6.20054 22.3175 7.13259C22.3175 8.06463 23.1432 8.8173 24.1658 8.8173C25.1883 8.8173 26.0141 8.06815 26.0141 7.13259C26.0144 6.91127 25.9668 6.69207 25.874 6.48755C25.7812 6.28302 25.6451 6.09719 25.4734 5.94069C25.3017 5.7842 25.0979 5.66012 24.8735 5.57555C24.6491 5.49098 24.4086 5.4476 24.1658 5.44787ZM31.3545 14.6382C31.3545 12.6967 31.3738 10.7728 31.2542 8.83488C31.1346 6.58391 30.5712 4.58617 28.7654 2.94015C26.9556 1.29061 24.7677 0.780625 22.2982 0.671593C20.1682 0.562562 18.0575 0.580148 15.9313 0.580148C13.8013 0.580148 11.6906 0.562562 9.56447 0.671593C7.0949 0.780625 4.90316 1.29413 3.09729 2.94015C1.28756 4.58969 0.728052 6.58391 0.608432 8.83488C0.488812 10.7763 0.508106 12.7002 0.508106 14.6382C0.508106 16.5761 0.488812 18.5035 0.608432 20.4415C0.728052 22.6924 1.29142 24.6902 3.09729 26.3362C4.90702 27.9857 7.0949 28.4957 9.56447 28.6047C11.6945 28.7138 13.8052 28.6962 15.9313 28.6962C18.0613 28.6962 20.172 28.7138 22.2982 28.6047C24.7677 28.4957 26.9595 27.9822 28.7654 26.3362C30.5751 24.6866 31.1346 22.6924 31.2542 20.4415C31.3777 18.5035 31.3545 16.5796 31.3545 14.6382ZM27.9589 22.9316C27.6772 23.5717 27.3376 24.05 26.7936 24.5424C26.2495 25.0384 25.7286 25.3479 25.0263 25.6046C22.9966 26.3397 18.1771 26.1744 15.9275 26.1744C13.6778 26.1744 8.85447 26.3397 6.8248 25.6081C6.12251 25.3514 5.59773 25.0419 5.05751 24.546C4.51343 24.05 4.17387 23.5752 3.89218 22.9351C3.08958 21.0816 3.27093 16.6887 3.27093 14.6382C3.27093 12.5877 3.08958 8.19125 3.89218 6.34123C4.17387 5.70111 4.51343 5.22278 5.05751 4.73038C5.60159 4.23798 6.12251 3.92495 6.8248 3.6682C8.85447 2.93663 13.6778 3.10194 15.9275 3.10194C18.1771 3.10194 23.0005 2.93663 25.0301 3.6682C25.7324 3.92495 26.2572 4.23446 26.7974 4.73038C27.3415 5.22629 27.6811 5.70111 27.9627 6.34123C28.7654 8.19125 28.584 12.5877 28.584 14.6382C28.584 16.6887 28.7654 21.0816 27.9589 22.9316Z" fill="#098A5B"/>
</svg>
