<svg width="29" height="23" viewBox="0 0 29 23" fill="none" xmlns="http://www.w3.org/2000/svg">
<path d="M28.8653 3.05937C27.804 3.51027 26.6639 3.81494 25.4654 3.95264C26.702 3.24314 27.6272 2.12645 28.0683 0.810961C26.9065 1.47268 25.6348 1.93845 24.3088 2.18804C23.417 1.2751 22.2359 0.669995 20.9487 0.46666C19.6615 0.263326 18.3403 0.473141 17.1903 1.06353C16.0402 1.65392 15.1256 2.59185 14.5885 3.73171C14.0513 4.87156 13.9217 6.14957 14.2197 7.3673C11.8654 7.25397 9.5623 6.66725 7.45983 5.64524C5.35736 4.62322 3.50251 3.18875 2.01566 1.43491C1.50726 2.27578 1.21493 3.2507 1.21493 4.28899C1.21437 5.22369 1.45443 6.14407 1.91382 6.96848C2.37322 7.79289 3.03773 8.49582 3.84842 9.01492C2.90824 8.98624 1.9888 8.74265 1.16664 8.30445V8.37757C1.16654 9.68852 1.63949 10.9591 2.50522 11.9738C3.37095 12.9885 4.57615 13.6847 5.91632 13.9444C5.04414 14.1707 4.12974 14.204 3.24216 14.0419C3.62027 15.1699 4.35681 16.1562 5.34865 16.8629C6.34049 17.5696 7.53799 17.9613 8.77349 17.983C6.67615 19.5616 4.08595 20.4179 1.41956 20.4142C0.94724 20.4143 0.475317 20.3879 0.00622559 20.335C2.71276 22.0035 5.86337 22.889 9.08107 22.8856C19.9734 22.8856 25.928 14.2356 25.928 6.73361C25.928 6.48988 25.9216 6.24371 25.9102 5.99998C27.0685 5.19686 28.0682 4.20234 28.8627 3.06303L28.8653 3.05937Z" fill="#098A5B"/>
</svg>
