<svg width="73" height="69" viewBox="0 0 73 69" fill="none" xmlns="http://www.w3.org/2000/svg">
<g opacity="0.25" filter="url(#filter0_f_16_60)">
<rect x="10.9444" y="34.2101" width="49.4875" height="29.1311" rx="14.5656" fill="url(#paint0_linear_16_60)"/>
</g>
<path d="M9.44386 34.1414C9.44386 30.9338 9.44386 29.33 9.61243 27.9826C10.8498 18.0913 18.6408 10.3004 28.5321 9.06297C29.8795 8.89441 31.4833 8.89441 34.6908 8.89441H37.8084C41.0159 8.89441 42.6197 8.89441 43.9671 9.06297C53.8584 10.3004 61.6494 18.0913 62.8868 27.9826C63.0553 29.33 63.0553 30.9338 63.0553 34.1414C63.0553 37.3489 63.0553 38.9527 62.8868 40.3001C61.6494 50.1915 53.8584 57.9824 43.9671 59.2198C42.6197 59.3884 41.0159 59.3884 37.8084 59.3884H34.6908C31.4833 59.3884 29.8795 59.3884 28.5321 59.2198C18.6408 57.9824 10.8498 50.1915 9.61243 40.3001C9.44386 38.9527 9.44386 37.3489 9.44386 34.1414Z" fill="url(#paint1_linear_16_60)"/>
<g clip-path="url(#clip0_16_60)" filter="url(#filter1_i_16_60)">
<path d="M19.6142 49.2627L21.9576 41.0562C20.0677 37.8593 19.4673 34.1289 20.2664 30.5493C21.0656 26.9698 23.2108 23.7813 26.3084 21.569C29.406 19.3566 33.2481 18.2688 37.1298 18.5052C41.0115 18.7415 44.6724 20.2862 47.4406 22.8557C50.2089 25.4252 51.8989 28.8472 52.2004 32.4937C52.502 36.1403 51.3949 39.7668 49.0824 42.7078C46.7698 45.6487 43.4069 47.7069 39.6107 48.5047C35.8145 49.3024 31.8397 48.7861 28.4157 47.0506L19.6142 49.2627ZM28.8401 43.9797L29.3844 44.2833C31.8645 45.6655 34.7612 46.2375 37.6231 45.9101C40.4851 45.5828 43.1514 44.3744 45.2067 42.4733C47.262 40.5723 48.5908 38.0853 48.986 35.4C49.3812 32.7147 48.8205 29.9819 47.3915 27.6275C45.9624 25.2731 43.7452 23.4293 41.0854 22.3834C38.4255 21.3376 35.4725 21.1485 32.6864 21.8455C29.9003 22.5426 27.4376 24.0866 25.6823 26.2371C23.9269 28.3876 22.9773 31.0236 22.9816 33.7345C22.9793 35.9823 23.6404 38.1865 24.8914 40.102L25.2327 40.6311L23.9227 45.2115L28.8401 43.9797Z" fill="white"/>
<path fill-rule="evenodd" clip-rule="evenodd" d="M42.0513 35.8417C41.7322 35.5997 41.3585 35.4294 40.9588 35.3437C40.5591 35.258 40.1439 35.2592 39.7448 35.3472C39.1451 35.5815 38.7576 36.4663 38.3701 36.9087C38.2884 37.0148 38.1684 37.0892 38.0325 37.1179C37.8966 37.1467 37.7542 37.1278 37.6321 37.0649C35.4366 36.2563 33.5964 34.7736 32.4102 32.8575C32.3091 32.7379 32.2612 32.5861 32.2767 32.434C32.2921 32.2819 32.3698 32.1414 32.4933 32.0421C32.9254 31.6398 33.2427 31.1415 33.4158 30.5933C33.4543 29.9887 33.307 29.3864 32.9915 28.8583C32.7475 28.118 32.2833 27.4587 31.6537 26.9585C31.3289 26.8212 30.9689 26.7751 30.6169 26.8259C30.2649 26.8767 29.9361 27.0222 29.6701 27.2448C29.2084 27.6194 28.8418 28.0867 28.5975 28.6121C28.3532 29.1376 28.2374 29.7079 28.2586 30.281C28.26 30.6029 28.3034 30.9234 28.3877 31.2353C28.602 31.9847 28.9314 32.7007 29.3657 33.3607C29.679 33.8662 30.0208 34.3556 30.3898 34.8267C31.5887 36.3743 33.0958 37.6883 34.8274 38.6958C35.6963 39.2077 36.625 39.624 37.5952 39.9363C38.6029 40.3658 39.7156 40.5307 40.815 40.4134C41.4414 40.3243 42.0349 40.0917 42.5433 39.7362C43.0516 39.3807 43.4593 38.9132 43.7304 38.3748C43.8896 38.0495 43.938 37.6859 43.8688 37.3338C43.7027 36.6138 42.6786 36.1887 42.0513 35.8417Z" fill="white"/>
</g>
<defs>
<filter id="filter0_f_16_60" x="5.48435" y="28.7501" width="60.4075" height="40.0511" filterUnits="userSpaceOnUse" color-interpolation-filters="sRGB">
<feFlood flood-opacity="0" result="BackgroundImageFix"/>
<feBlend mode="normal" in="SourceGraphic" in2="BackgroundImageFix" result="shape"/>
<feGaussianBlur stdDeviation="2.73" result="effect1_foregroundBlur_16_60"/>
</filter>
<filter id="filter1_i_16_60" x="19.6142" y="18.4734" width="32.6903" height="31.1526" filterUnits="userSpaceOnUse" color-interpolation-filters="sRGB">
<feFlood flood-opacity="0" result="BackgroundImageFix"/>
<feBlend mode="normal" in="SourceGraphic" in2="BackgroundImageFix" result="shape"/>
<feColorMatrix in="SourceAlpha" type="matrix" values="0 0 0 0 0 0 0 0 0 0 0 0 0 0 0 0 0 0 127 0" result="hardAlpha"/>
<feOffset dy="0.363226"/>
<feGaussianBlur stdDeviation="0.908064"/>
<feComposite in2="hardAlpha" operator="arithmetic" k2="-1" k3="1"/>
<feColorMatrix type="matrix" values="0 0 0 0 0 0 0 0 0 0 0 0 0 0 0 0 0 0 0.1 0"/>
<feBlend mode="normal" in2="shape" result="effect1_innerShadow_16_60"/>
</filter>
<linearGradient id="paint0_linear_16_60" x1="39.1083" y1="64.21" x2="30.0842" y2="30.4395" gradientUnits="userSpaceOnUse">
<stop stop-color="#00D95F"/>
<stop offset="1" stop-color="#07FF74"/>
</linearGradient>
<linearGradient id="paint1_linear_16_60" x1="39.9548" y1="60.8942" x2="17.2849" y2="7.87142" gradientUnits="userSpaceOnUse">
<stop stop-color="#00D95F"/>
<stop offset="1" stop-color="#07FF74"/>
</linearGradient>
<clipPath id="clip0_16_60">
<rect width="32.6903" height="30.7894" fill="white" transform="translate(19.6142 18.4734)"/>
</clipPath>
</defs>
</svg>
